<svg width="21" height="21" viewBox="0 0 21 21" fill="none" xmlns="http://www.w3.org/2000/svg">
<mask id="mask0_1215_426" style="mask-type:alpha" maskUnits="userSpaceOnUse" x="1" y="0" width="19" height="20">
<path d="M10.8334 0.948334C15.8955 0.948334 19.999 5.05175 19.999 10.1139C19.999 15.176 15.8955 19.2794 10.8334 19.2794C9.35063 19.2814 7.88969 18.9221 6.57692 18.2327L2.6449 19.2565C2.51352 19.2907 2.37548 19.29 2.24445 19.2545C2.11343 19.2189 1.99397 19.1497 1.89792 19.0537C1.80188 18.9578 1.73257 18.8384 1.69688 18.7074C1.66119 18.5764 1.66034 18.4384 1.69444 18.307L2.71731 14.3759C2.02604 13.0617 1.66581 11.5988 1.66786 10.1139C1.66786 5.05175 5.77127 0.948334 10.8334 0.948334Z" fill="#006FFD"/>
</mask>
<g mask="url(#mask0_1215_426)">
<rect x="0.833313" y="0.11499" width="20" height="20" fill="#006FFD"/>
</g>
</svg>
