<svg width="20" height="21" viewBox="0 0 20 21" fill="none" xmlns="http://www.w3.org/2000/svg">
<mask id="mask0_1215_2078" style="mask-type:alpha" maskUnits="userSpaceOnUse" x="0" y="0" width="20" height="20">
<path fill-rule="evenodd" clip-rule="evenodd" d="M3.33324 4.49007C2.98806 4.49007 2.70824 4.76988 2.70824 5.11506V16.7815C2.70824 17.1267 2.98806 17.4065 3.33324 17.4065H14.9999C15.3451 17.4065 15.6249 17.1267 15.6249 16.7815V10.9483C15.6249 10.373 16.0913 9.90665 16.6666 9.90665C17.2419 9.90665 17.7082 10.373 17.7082 10.9483V16.7815C17.7082 18.2773 16.4957 19.4898 14.9999 19.4898H3.33324C1.83747 19.4898 0.624908 18.2773 0.624908 16.7815V5.11506C0.624908 3.61931 1.83747 2.40677 3.33324 2.40677H9.16657C9.74187 2.40677 10.2082 2.87313 10.2082 3.44842C10.2082 4.0237 9.74187 4.49007 9.16657 4.49007H3.33324Z" fill="#006FFD"/>
<path d="M10.9121 12.0323L16.8687 6.07585L14.0394 3.24666L8.08291 9.20309C8.00091 9.28519 7.94266 9.38796 7.91434 9.50049L7.25414 12.861L10.6141 12.2008C10.7269 12.1726 10.8301 12.1143 10.9121 12.0323ZM18.7916 4.15297C19.0319 3.91258 19.1669 3.58658 19.1669 3.24666C19.1669 2.90674 19.0319 2.58074 18.7916 2.34034L17.775 1.32378C17.5346 1.08346 17.2086 0.948456 16.8687 0.948456C16.5287 0.948456 16.2027 1.08346 15.9623 1.32378L14.9458 2.34034L17.775 5.16953L18.7916 4.15297Z" fill="#006FFD"/>
</mask>
<g mask="url(#mask0_1215_2078)">
<rect x="-9.15527e-05" y="0.115143" width="20" height="19.9997" fill="#006FFD"/>
</g>
</svg>
