<svg width="21" height="21" viewBox="0 0 21 21" fill="none" xmlns="http://www.w3.org/2000/svg">
<mask id="mask0_1215_431" style="mask-type:alpha" maskUnits="userSpaceOnUse" x="2" y="0" width="17" height="21">
<path d="M15.4998 5.11487C15.4998 7.87623 13.2613 10.1148 10.5 10.1148C7.73867 10.1148 5.50018 7.87623 5.50018 5.11487C5.50018 2.35351 7.73867 0.11499 10.5 0.11499C13.2613 0.11499 15.4998 2.35351 15.4998 5.11487Z" fill="#006FFD"/>
<path d="M2.16693 16.7817C2.16693 14.0204 4.40542 11.7818 7.16674 11.7818H13.8331C16.5945 11.7818 18.8329 14.0204 18.8329 16.7817V17.615C18.8329 18.9957 17.7137 20.115 16.333 20.115H4.66683C3.28618 20.115 2.16693 18.9957 2.16693 17.615V16.7817Z" fill="#006FFD"/>
</mask>
<g mask="url(#mask0_1215_431)">
<rect x="0.500427" y="0.113892" width="19.9992" height="19.9995" fill="#D4D6DD"/>
</g>
</svg>
