<svg width="21" height="21" viewBox="0 0 21 21" fill="none" xmlns="http://www.w3.org/2000/svg">
<g clip-path="url(#clip0_1215_436)">
<mask id="mask0_1215_436" style="mask-type:alpha" maskUnits="userSpaceOnUse" x="0" y="0" width="21" height="21">
<path d="M19.9193 8.59502L17.6838 7.92836C17.5292 7.38923 17.3167 6.86842 17.0498 6.37503L18.1442 4.32837C18.1853 4.25112 18.2003 4.1627 18.1871 4.07623C18.1739 3.98976 18.1331 3.90986 18.0708 3.84838L16.4759 2.24838C16.4144 2.18616 16.3344 2.14543 16.2479 2.13222C16.1613 2.119 16.0728 2.13403 15.9955 2.17505L13.9601 3.26171C13.4614 2.98215 12.9332 2.75857 12.3853 2.59505L11.7179 0.388394C11.6897 0.307072 11.6364 0.236794 11.5656 0.187676C11.4949 0.138558 11.4104 0.113134 11.3242 0.115062H9.06869C8.98203 0.115465 8.89776 0.143485 8.82815 0.195044C8.75854 0.246602 8.70721 0.319009 8.68164 0.401727L8.01432 2.60172C7.46179 2.76437 6.92911 2.98797 6.42611 3.26838L4.42415 2.18838C4.34682 2.14736 4.25831 2.13234 4.17176 2.14555C4.0852 2.15876 4.00522 2.1995 3.94368 2.26172L2.3221 3.84171C2.25981 3.90319 2.21904 3.98309 2.20581 4.06956C2.19259 4.15603 2.20763 4.24445 2.24869 4.32171L3.32975 6.3217C3.04951 6.82209 2.8257 7.35199 2.66243 7.90169L0.453604 8.56835C0.370805 8.5939 0.298326 8.64517 0.246717 8.71472C0.195107 8.78426 0.16706 8.86845 0.166656 8.95502V11.2083C0.16706 11.2949 0.195107 11.3791 0.246717 11.4486C0.298326 11.5182 0.370805 11.5695 0.453604 11.595L2.67577 12.2617C2.84083 12.8022 3.06461 13.3231 3.34309 13.815L2.24869 15.9083C2.20763 15.9856 2.19259 16.074 2.20581 16.1605C2.21904 16.2469 2.25981 16.3268 2.3221 16.3883L3.91699 17.9816C3.97853 18.0439 4.05851 18.0846 4.14506 18.0978C4.23162 18.111 4.32013 18.096 4.39746 18.055L6.45947 16.955C6.94726 17.2179 7.4618 17.428 7.9943 17.5816L8.66162 19.8283C8.68719 19.911 8.73852 19.9834 8.80813 20.035C8.87775 20.0865 8.96201 20.1146 9.04867 20.115H11.3042C11.3909 20.1146 11.4751 20.0865 11.5447 20.035C11.6144 19.9834 11.6657 19.911 11.6913 19.8283L12.3586 17.575C12.8865 17.4205 13.3966 17.2105 13.8801 16.9483L15.9554 18.055C16.0327 18.096 16.1213 18.111 16.2078 18.0978C16.2944 18.0846 16.3743 18.0439 16.4359 17.9816L18.0308 16.3883C18.0931 16.3268 18.1338 16.2469 18.1471 16.1605C18.1603 16.074 18.1452 15.9856 18.1042 15.9083L16.9964 13.8417C17.2616 13.3568 17.4741 12.845 17.6304 12.315L19.8793 11.6483C19.9621 11.6228 20.0345 11.5715 20.0861 11.502C20.1377 11.4324 20.1658 11.3482 20.1662 11.2617V8.98835C20.1701 8.90545 20.1486 8.82333 20.1045 8.75302C20.0603 8.68271 19.9957 8.62758 19.9193 8.59502ZM10.1965 13.7817C9.47055 13.7817 8.76094 13.5666 8.15737 13.1637C7.5538 12.7608 7.08338 12.1882 6.80559 11.5182C6.52779 10.8482 6.45511 10.1109 6.59673 9.39968C6.73834 8.68842 7.0879 8.03509 7.6012 7.5223C8.11449 7.00951 8.76847 6.6603 9.48043 6.51882C10.1924 6.37734 10.9304 6.44995 11.601 6.72747C12.2717 7.00499 12.8449 7.47495 13.2482 8.07793C13.6515 8.68091 13.8667 9.38982 13.8667 10.115C13.8667 11.0875 13.48 12.0201 12.7917 12.7077C12.1034 13.3954 11.1699 13.7817 10.1965 13.7817Z" fill="#006FFD"/>
</mask>
<g mask="url(#mask0_1215_436)">
<rect x="0.166656" y="0.11499" width="20" height="20" fill="#D4D6DD"/>
</g>
</g>
<defs>
<clipPath id="clip0_1215_436">
<rect width="20" height="20" fill="white" transform="translate(0.166656 0.11499)"/>
</clipPath>
</defs>
</svg>
